<svg id="visual" viewBox="0 0 675 900" width="675" height="900" xmlns="http://www.w3.org/2000/svg" xmlns:xlink="http://www.w3.org/1999/xlink" version="1.1"><path d="M0 190L18.8 187C37.7 184 75.3 178 112.8 178C150.3 178 187.7 184 225.2 209.5C262.7 235 300.3 280 337.8 289C375.3 298 412.7 271 450.2 247C487.7 223 525.3 202 562.8 193C600.3 184 637.7 187 656.3 188.5L675 190L675 0L656.3 0C637.7 0 600.3 0 562.8 0C525.3 0 487.7 0 450.2 0C412.7 0 375.3 0 337.8 0C300.3 0 262.7 0 225.2 0C187.7 0 150.3 0 112.8 0C75.3 0 37.7 0 18.8 0L0 0Z" fill="#e7627a"></path><path d="M0 397L18.8 400C37.7 403 75.3 409 112.8 397C150.3 385 187.7 355 225.2 353.5C262.7 352 300.3 379 337.8 373C375.3 367 412.7 328 450.2 322C487.7 316 525.3 343 562.8 350.5C600.3 358 637.7 346 656.3 340L675 334L675 188L656.3 186.5C637.7 185 600.3 182 562.8 191C525.3 200 487.7 221 450.2 245C412.7 269 375.3 296 337.8 287C300.3 278 262.7 233 225.2 207.5C187.7 182 150.3 176 112.8 176C75.3 176 37.7 182 18.8 185L0 188Z" fill="#db3657"></path><path d="M0 757L18.8 757C37.7 757 75.3 757 112.8 748C150.3 739 187.7 721 225.2 697C262.7 673 300.3 643 337.8 623.5C375.3 604 412.7 595 450.2 584.5C487.7 574 525.3 562 562.8 547C600.3 532 637.7 514 656.3 505L675 496L675 332L656.3 338C637.7 344 600.3 356 562.8 348.5C525.3 341 487.7 314 450.2 320C412.7 326 375.3 365 337.8 371C300.3 377 262.7 350 225.2 351.5C187.7 353 150.3 383 112.8 395C75.3 407 37.7 401 18.8 398L0 395Z" fill="#c00f40"></path><path d="M0 901L18.8 901C37.7 901 75.3 901 112.8 901C150.3 901 187.7 901 225.2 901C262.7 901 300.3 901 337.8 901C375.3 901 412.7 901 450.2 901C487.7 901 525.3 901 562.8 901C600.3 901 637.7 901 656.3 901L675 901L675 494L656.3 503C637.7 512 600.3 530 562.8 545C525.3 560 487.7 572 450.2 582.5C412.7 593 375.3 602 337.8 621.5C300.3 641 262.7 671 225.2 695C187.7 719 150.3 737 112.8 746C75.3 755 37.7 755 18.8 755L0 755Z" fill="#9b0b35"></path></svg>