<?xml version="1.0" standalone="no"?><svg xmlns="http://www.w3.org/2000/svg" viewBox="0 0 1440 320"><path fill="#d31145" fill-opacity="1" d="M0,32L40,74.7C80,117,160,203,240,208C320,213,400,139,480,128C560,117,640,171,720,192C800,213,880,203,960,192C1040,181,1120,171,1200,186.7C1280,203,1360,245,1400,266.7L1440,288L1440,320L1400,320C1360,320,1280,320,1200,320C1120,320,1040,320,960,320C880,320,800,320,720,320C640,320,560,320,480,320C400,320,320,320,240,320C160,320,80,320,40,320L0,320Z"></path></svg>