<?xml version="1.0" standalone="no"?><svg xmlns="http://www.w3.org/2000/svg" viewBox="0 0 1440 320"><path fill="#d31145" fill-opacity="1" d="M0,32L18.5,64C36.9,96,74,160,111,165.3C147.7,171,185,117,222,80C258.5,43,295,21,332,58.7C369.2,96,406,192,443,208C480,224,517,160,554,149.3C590.8,139,628,181,665,208C701.5,235,738,245,775,234.7C812.3,224,849,192,886,149.3C923.1,107,960,53,997,53.3C1033.8,53,1071,107,1108,133.3C1144.6,160,1182,160,1218,149.3C1255.4,139,1292,117,1329,106.7C1366.2,96,1403,96,1422,96L1440,96L1440,320L1421.5,320C1403.1,320,1366,320,1329,320C1292.3,320,1255,320,1218,320C1181.5,320,1145,320,1108,320C1070.8,320,1034,320,997,320C960,320,923,320,886,320C849.2,320,812,320,775,320C738.5,320,702,320,665,320C627.7,320,591,320,554,320C516.9,320,480,320,443,320C406.2,320,369,320,332,320C295.4,320,258,320,222,320C184.6,320,148,320,111,320C73.8,320,37,320,18,320L0,320Z"></path></svg>