<?xml version="1.0" encoding="UTF-8"?>
<svg version="1.1" xmlns="http://www.w3.org/2000/svg" width="214" height="214">
<path d="M0 0 C1.38288208 0.00580078 1.38288208 0.00580078 2.79370117 0.01171875 C9.29262139 0.09423744 15.3490263 0.73633464 21.6875 2.25 C20.6975 6.21 19.7075 10.17 18.6875 14.25 C23.1425 15.24 23.1425 15.24 27.6875 16.25 C28.161875 14.80625 28.63625 13.3625 29.125 11.875 C29.88147017 9.57269949 30.60358814 7.41782371 31.6875 5.25 C33.10541408 5.70445964 34.52178046 6.16374944 35.9375 6.625 C37.12085938 7.00785156 37.12085938 7.00785156 38.328125 7.3984375 C40.55377958 8.20173667 42.59681672 9.14711662 44.6875 10.25 C44.11115861 15.00481646 42.13681479 18.22048212 39.6875 22.25 C40.409375 22.53875 41.13125 22.8275 41.875 23.125 C44.47916667 24.16666667 47.08333333 25.20833333 49.6875 26.25 C49.955625 25.528125 50.22375 24.80625 50.5 24.0625 C51.67732498 21.27409874 53.07895884 18.80904276 54.6875 16.25 C63.13396925 22.40034169 63.13396925 22.40034169 66.6875 26.25 C64.3775 28.56 62.0675 30.87 59.6875 33.25 C61.57093932 37.01687864 62.37882469 38.04421646 65.6875 40.25 C66.43 39.46625 67.1725 38.6825 67.9375 37.875 C70.28171977 35.63733567 71.83074985 34.55629174 74.6875 33.25 C76.05396148 34.84370671 77.40537166 36.45032982 78.75 38.0625 C79.50410156 38.95582031 80.25820312 39.84914062 81.03515625 40.76953125 C81.58042969 41.58808594 82.12570313 42.40664063 82.6875 43.25 C81.2236389 47.64158329 78.70918662 48.12947433 74.6875 50.25 C75.33294429 53.73539917 76.78884397 56.27819057 78.6875 59.25 C79.23019531 58.87746094 79.77289063 58.50492188 80.33203125 58.12109375 C81.40517578 57.41146484 81.40517578 57.41146484 82.5 56.6875 C83.20769531 56.21183594 83.91539062 55.73617187 84.64453125 55.24609375 C86.6875 54.25 86.6875 54.25 89.6875 55.25 C90.85546875 57.4296875 90.85546875 57.4296875 91.875 60.125 C92.21917969 61.00929687 92.56335938 61.89359375 92.91796875 62.8046875 C93.6875 65.25 93.6875 65.25 93.6875 68.25 C90.0575 69.24 86.4275 70.23 82.6875 71.25 C83.6775 74.22 84.6675 77.19 85.6875 80.25 C91.1325 79.26 91.1325 79.26 96.6875 78.25 C98.4354503 83.49385089 98.88142201 87.72322267 98.6875 93.25 C97.04190244 93.58449533 95.39601502 93.91756499 93.75 94.25 C92.83347656 94.435625 91.91695312 94.62125 90.97265625 94.8125 C88.6875 95.25 88.6875 95.25 87.6875 95.25 C87.3575 97.56 87.0275 99.87 86.6875 102.25 C90.6475 102.58 94.6075 102.91 98.6875 103.25 C98.77788099 108.40171623 98.53431133 113.16913204 97.6875 118.25 C93.65757218 117.69687265 89.66727076 117.0941938 85.6875 116.25 C85.0275 119.22 84.3675 122.19 83.6875 125.25 C86.9875 126.24 90.2875 127.23 93.6875 128.25 C93.15265599 133.59844008 91.22059233 137.60796103 88.6875 142.25 C85.7155615 141.12548273 83.35309313 140.02706209 80.6875 138.25 C79.6975 138.25 78.7075 138.25 77.6875 138.25 C75.57979241 141.13834003 74.6875 142.63462395 74.6875 146.25 C76.45482099 147.7194809 76.45482099 147.7194809 78.6875 148.9375 C79.43 149.37449219 80.1725 149.81148437 80.9375 150.26171875 C81.515 150.58785156 82.0925 150.91398438 82.6875 151.25 C81.22039058 156.09146109 78.3362256 159.80948972 74.6875 163.25 C72.6875 163.25 72.6875 163.25 70.25 160.875 C69.404375 160.00875 68.55875 159.1425 67.6875 158.25 C66.6975 157.59 65.7075 156.93 64.6875 156.25 C63.0375 157.9 61.3875 159.55 59.6875 161.25 C61.35501148 165.19139078 63.91460649 168.0392812 66.6875 171.25 C65.11732807 172.61940568 63.53084609 173.97012895 61.9375 175.3125 C61.05578125 176.06660156 60.1740625 176.82070312 59.265625 177.59765625 C56.6875 179.25 56.6875 179.25 54.5 179.21875 C51.23150641 177.47179653 50.33143307 174.47915425 48.6875 171.25 C47.945 171.559375 47.2025 171.86875 46.4375 172.1875 C44.1751042 173.06160747 42.03775921 173.69256673 39.6875 174.25 C40.0484375 174.86488281 40.409375 175.47976562 40.78125 176.11328125 C41.2453125 176.92152344 41.709375 177.72976562 42.1875 178.5625 C42.6515625 179.36300781 43.115625 180.16351563 43.59375 180.98828125 C44.6875 183.25 44.6875 183.25 44.6875 186.25 C36.65248906 190.32877462 36.65248906 190.32877462 32.625 190 C31.6659375 189.62875 31.6659375 189.62875 30.6875 189.25 C30.0275 186.61 29.3675 183.97 28.6875 181.25 C25.3875 181.58 22.0875 181.91 18.6875 182.25 C19.6775 186.21 20.6675 190.17 21.6875 194.25 C-2.85797496 199.15909499 -30.05834247 194.80796623 -51.11523438 181.07421875 C-53.72019278 179.25045084 -56.22215091 177.3212505 -58.69921875 175.328125 C-61.35643501 173.14594756 -61.35643501 173.14594756 -64.6015625 171.12109375 C-67.3125 169.25 -67.3125 169.25 -68 167.0625 C-68.103125 166.464375 -68.20625 165.86625 -68.3125 165.25 C-69.3025 164.92 -70.2925 164.59 -71.3125 164.25 C-86.3125 146.90714286 -86.3125 146.90714286 -86.3125 139.25 C-86.9725 138.92 -87.6325 138.59 -88.3125 138.25 C-97.39892393 115.41048334 -98.52519548 93.9450627 -92.3125 70.25 C-91.91417969 68.63544922 -91.91417969 68.63544922 -91.5078125 66.98828125 C-87.89177372 54.36658398 -79.63684242 40.55148864 -70.3125 31.25 C-69.6525 31.25 -68.9925 31.25 -68.3125 31.25 C-68.07660156 30.66476563 -67.84070313 30.07953125 -67.59765625 29.4765625 C-66.03099628 26.76228839 -64.27441171 25.46461945 -61.75 23.625 C-58.50439297 21.38620634 -58.50439297 21.38620634 -56.3125 18.25 C-54.3125 17.58333333 -52.3125 16.91666667 -50.3125 16.25 C-49.9825 15.59 -49.6525 14.93 -49.3125 14.25 C-46.76840502 12.86883445 -44.24454062 11.59739583 -41.625 10.375 C-40.47946655 9.83818604 -40.47946655 9.83818604 -39.31079102 9.29052734 C-32.46670621 6.1689136 -25.62728686 4.02808297 -18.3125 2.25 C-17.07242188 1.89164063 -15.83234375 1.53328125 -14.5546875 1.1640625 C-9.71086753 -0.04038431 -4.96876276 -0.05035756 0 0 Z M-0.3125 2.25 C-0.3125 3.24 -0.3125 4.23 -0.3125 5.25 C0.3475 5.25 1.0075 5.25 1.6875 5.25 C2.0175 6.24 2.3475 7.23 2.6875 8.25 C2.6875 6.27 2.6875 4.29 2.6875 2.25 C1.6975 2.25 0.7075 2.25 -0.3125 2.25 Z M-0.3125 9.25 C-0.355221 10.91611905 -0.35313832 12.58382885 -0.3125 14.25 C0.1825 14.745 0.1825 14.745 0.6875 15.25 C0.0275 15.58 -0.6325 15.91 -1.3125 16.25 C-1.37308594 17.53390625 -1.43367188 18.8178125 -1.49609375 20.140625 C-1.55615601 21.4083374 -1.55615601 21.4083374 -1.61743164 22.70166016 C-1.70673521 24.58673836 -1.79575955 26.47182981 -1.88452148 28.35693359 C-2.11123951 33.14231748 -2.34537532 37.92703406 -2.6015625 42.7109375 C-3.05486238 51.22979419 -3.48868405 59.71486159 -3.3125 68.25 C-3.9725 68.25 -4.6325 68.25 -5.3125 68.25 C-5.59335449 67.67926758 -5.87420898 67.10853516 -6.16357422 66.52050781 C-7.29220358 64.2901098 -8.4787619 62.10542736 -9.6953125 59.921875 C-10.14003906 59.12265625 -10.58476563 58.3234375 -11.04296875 57.5 C-11.50316406 56.675 -11.96335937 55.85 -12.4375 55 C-12.90542969 54.15953125 -13.37335938 53.3190625 -13.85546875 52.453125 C-15.00704523 50.38498765 -16.15941391 48.31729594 -17.3125 46.25 C-17.9725 46.25 -18.6325 46.25 -19.3125 46.25 C-19.4671875 45.074375 -19.4671875 45.074375 -19.625 43.875 C-20.08845022 40.91954819 -20.08845022 40.91954819 -23.3125 39.25 C-22.0469221 46.95757691 -20.30309098 54.42158467 -18.1875 61.9375 C-17.77177734 63.43700195 -17.77177734 63.43700195 -17.34765625 64.96679688 C-16.67358709 67.39577023 -15.99516323 69.82343085 -15.3125 72.25 C-19.39925179 70.00600175 -22.55610625 67.32410837 -25.9375 64.125 C-31.52730784 58.89852967 -37.30338084 53.99404144 -43.3125 49.25 C-44.034375 48.6725 -44.75625 48.095 -45.5 47.5 C-47.2199477 46.06075568 -47.2199477 46.06075568 -49.3125 46.25 C-49.539375 45.63125 -49.76625 45.0125 -50 44.375 C-51.69179835 41.63589791 -53.30494161 41.19975528 -56.3125 40.25 C-56.3125 39.59 -56.3125 38.93 -56.3125 38.25 C-57.6325 37.92 -58.9525 37.59 -60.3125 37.25 C-59.9825 37.91 -59.6525 38.57 -59.3125 39.25 C-58.6525 39.25 -57.9925 39.25 -57.3125 39.25 C-57.07015625 39.97574219 -56.8278125 40.70148437 -56.578125 41.44921875 C-55.14926387 44.61123551 -53.44738919 46.55187686 -51.0625 49.0625 C-47.56264307 52.82160559 -44.42990882 56.63345054 -41.50390625 60.8515625 C-41.11074219 61.31304687 -40.71757813 61.77453125 -40.3125 62.25 C-39.6525 62.25 -38.9925 62.25 -38.3125 62.25 C-38.09722656 62.77335937 -37.88195312 63.29671875 -37.66015625 63.8359375 C-35.77213604 67.21795631 -33.2879736 69.9633171 -30.75 72.875 C-25.43243243 79.01013514 -25.43243243 79.01013514 -24.3125 81.25 C-25.23587158 81.00241943 -26.15924316 80.75483887 -27.1105957 80.49975586 C-30.53563667 79.5837713 -33.96350333 78.67878458 -37.39233398 77.77709961 C-38.87620206 77.38524161 -40.35928601 76.99040175 -41.84155273 76.5925293 C-43.97180451 76.02127664 -46.10464235 75.46079296 -48.23828125 74.90234375 C-49.2321862 74.63211647 -49.2321862 74.63211647 -50.24617004 74.35643005 C-53.49287293 73.51786997 -55.05655147 73.16468382 -58.3125 74.25 C-57.74853516 74.58733154 -57.18457031 74.92466309 -56.60351562 75.2722168 C-54.00602856 76.82650753 -51.40926093 78.38199644 -48.8125 79.9375 C-47.925625 80.46794922 -47.03875 80.99839844 -46.125 81.54492188 C-43.51735762 83.10758992 -40.91427771 84.67759074 -38.3125 86.25 C-37.5184375 86.72518066 -36.724375 87.20036133 -35.90625 87.68994141 C-34.8234375 88.34808838 -34.8234375 88.34808838 -33.71875 89.01953125 C-32.76452148 89.59537964 -32.76452148 89.59537964 -31.79101562 90.18286133 C-30.3125 91.25 -30.3125 91.25 -29.3125 93.25 C-30.30507812 93.23839844 -31.29765625 93.22679688 -32.3203125 93.21484375 C-47.53828638 92.65589896 -47.53828638 92.65589896 -62.3125 95.25 C-63.72074893 95.33021999 -65.13247231 95.35765977 -66.54296875 95.34765625 C-67.34541016 95.34443359 -68.14785156 95.34121094 -68.97460938 95.33789062 C-69.80798828 95.32951172 -70.64136719 95.32113281 -71.5 95.3125 C-72.34498047 95.30798828 -73.18996094 95.30347656 -74.06054688 95.29882812 C-76.14456155 95.28705403 -78.22853977 95.2691189 -80.3125 95.25 C-79.9825 96.24 -79.6525 97.23 -79.3125 98.25 C-81.2925 99.24 -81.2925 99.24 -83.3125 100.25 C-55.85391368 102.67577029 -55.85391368 102.67577029 -28.3125 103.25 C-30.79197217 106.02166586 -33.52821725 107.66876093 -36.75 109.5 C-37.80960938 110.1084375 -38.86921875 110.716875 -39.9609375 111.34375 C-42.1953125 112.61458333 -44.4296875 113.88541667 -46.6640625 115.15625 C-47.72367188 115.7646875 -48.78328125 116.373125 -49.875 117 C-50.84566406 117.55171875 -51.81632812 118.1034375 -52.81640625 118.671875 C-54.99001291 120.04611145 -56.60802794 121.34466422 -58.3125 123.25 C-56.45750045 122.96367823 -54.60353476 122.67065585 -52.75 122.375 C-51.71746094 122.21257812 -50.68492188 122.05015625 -49.62109375 121.8828125 C-46.1018527 121.20971091 -42.74795681 120.26570027 -39.3125 119.25 C-36.67042862 118.52748914 -34.02270524 117.82655095 -31.375 117.125 C-30.69115234 116.94324219 -30.00730469 116.76148437 -29.30273438 116.57421875 C-27.6394765 116.13223414 -25.9760103 115.69103362 -24.3125 115.25 C-29.38752738 122.29864914 -35.00926718 128.81280446 -40.68945312 135.37255859 C-43.36594457 138.46856028 -46.02599011 141.57862099 -48.6875 144.6875 C-49.63273331 145.79043246 -50.57804331 146.89329919 -51.5234375 147.99609375 C-51.97299805 148.52058105 -52.42255859 149.04506836 -52.88574219 149.58544922 C-56.59912109 153.91772461 -56.59912109 153.91772461 -60.3125 158.25 C-59.8175 159.24 -59.8175 159.24 -59.3125 160.25 C-52.42502103 154.70851484 -45.69448609 149.01592538 -39.02783203 143.21264648 C-34.74924685 139.4900264 -30.45171159 135.79159959 -26.125 132.125 C-25.59664551 131.67592285 -25.06829102 131.2268457 -24.52392578 130.76416016 C-21.84740866 128.50115234 -19.12559295 126.33946896 -16.3125 124.25 C-17.71781795 131.49126347 -19.28663446 138.68605645 -20.9375 145.875 C-21.16695312 146.87917969 -21.39640625 147.88335937 -21.6328125 148.91796875 C-22.19150692 151.36225685 -22.75142054 153.80625849 -23.3125 156.25 C-22.6525 156.25 -21.9925 156.25 -21.3125 156.25 C-19.8211458 154.02663692 -18.45927696 151.81570807 -17.125 149.5 C-16.72861328 148.82638428 -16.33222656 148.15276855 -15.92382812 147.45874023 C-13.9968263 144.17734689 -12.09820099 140.87969216 -10.19921875 137.58203125 C-9.57660156 136.50308594 -8.95398438 135.42414063 -8.3125 134.3125 C-7.755625 133.33410156 -7.19875 132.35570312 -6.625 131.34765625 C-6.191875 130.65542969 -5.75875 129.96320313 -5.3125 129.25 C-4.9825 129.25 -4.6525 129.25 -4.3125 129.25 C-4.25715088 130.16813477 -4.20180176 131.08626953 -4.14477539 132.03222656 C-3.93715332 135.44664824 -3.72617703 138.86082856 -3.51293945 142.27490234 C-3.42142889 143.75105678 -3.33124632 145.22729419 -3.24243164 146.70361328 C-3.11435498 148.82868413 -2.98146617 150.95340839 -2.84765625 153.078125 C-2.769104 154.3559082 -2.69055176 155.63369141 -2.60961914 156.95019531 C-2.37584259 159.54651728 -1.97802146 161.75438085 -1.3125 164.25 C-1.26729692 166.70791771 -1.27386692 169.16697025 -1.3125 171.625 C-1.38967847 179.21655509 -0.97456302 186.68356549 -0.3125 194.25 C0.6775 193.92 1.6675 193.59 2.6875 193.25 C4.06064399 190.12921819 3.70455322 186.85170408 3.65795898 183.5 C3.68846192 181.17673498 3.89844148 178.93321516 4.16015625 176.625 C4.70861981 171.37652185 4.93764777 166.14673708 5.125 160.875 C5.54692865 150.28030778 6.5106224 139.7847684 7.6875 129.25 C8.36296875 128.98445313 9.0384375 128.71890625 9.734375 128.4453125 C10.62640625 128.09210938 11.5184375 127.73890625 12.4375 127.375 C13.31921875 127.02695313 14.2009375 126.67890625 15.109375 126.3203125 C17.3615248 125.3853291 19.52399459 124.37219206 21.6875 123.25 C25.70745962 126.173607 28.77668341 129.5266262 31.97265625 133.2890625 C33.45603502 134.98531795 34.98108244 136.52569321 36.625 138.0625 C38.6875 140.25 38.6875 140.25 38.6875 143.25 C38.0275 144.24 37.3675 145.23 36.6875 146.25 C38.58295392 146.73066535 40.47888039 147.20946743 42.375 147.6875 C43.43074219 147.95433594 44.48648438 148.22117188 45.57421875 148.49609375 C48.2703317 149.14897932 50.9632576 149.72941193 53.6875 150.25 C53.38005859 149.03763672 53.38005859 149.03763672 53.06640625 147.80078125 C52.79699219 146.73214844 52.52757812 145.66351563 52.25 144.5625 C51.98316406 143.50675781 51.71632812 142.45101562 51.44140625 141.36328125 C50.78852068 138.6671683 50.20808807 135.9742424 49.6875 133.25 C47.7075 134.57 45.7275 135.89 43.6875 137.25 C43.6875 136.59 43.6875 135.93 43.6875 135.25 C43.0275 135.25 42.3675 135.25 41.6875 135.25 C41.4709375 134.70730469 41.254375 134.16460937 41.03125 133.60546875 C39.22710874 130.44297694 36.771537 128.08310456 34.1875 125.5625 C33.68863281 125.06427734 33.18976563 124.56605469 32.67578125 124.05273438 C29.93596654 121.31240704 29.93596654 121.31240704 26.6875 119.25 C27.30385323 116.34800355 28.23786069 114.07950524 29.6875 111.5 C33.26426067 104.45052988 33.30017483 96.88898604 31.6875 89.25 C30.79985325 87.07020924 29.80306321 85.07468642 28.625 83.0390625 C27.62475244 81.13025673 27.13192518 79.35176077 26.6875 77.25 C27.43 76.693125 28.1725 76.13625 28.9375 75.5625 C31.61413452 73.3116937 33.52047626 70.97625567 35.6875 68.25 C37.9375 66.4375 37.9375 66.4375 39.6875 65.25 C41.0075 66.24 42.3275 67.23 43.6875 68.25 C43.96464844 67.27417969 44.24179688 66.29835937 44.52734375 65.29296875 C44.893194 64.00780249 45.25908136 62.72264679 45.625 61.4375 C45.98464844 60.17292969 46.34429687 58.90835938 46.71484375 57.60546875 C47.33241261 55.47498018 47.98604631 53.35436108 48.6875 51.25 C48.0584375 51.45496094 47.429375 51.65992188 46.78125 51.87109375 C41.38468181 53.56971235 36.32090386 54.72838853 30.6875 55.25 C31.6775 56.57 32.6675 57.89 33.6875 59.25 C32.10082422 63.15285767 29.55399519 65.58520982 26.5625 68.5 C25.65242188 69.39203125 24.74234375 70.2840625 23.8046875 71.203125 C22.75667969 72.21632813 22.75667969 72.21632813 21.6875 73.25 C21.13578125 72.96382812 20.5840625 72.67765625 20.015625 72.3828125 C17.52844711 71.17260849 15.01002247 70.1404694 12.4375 69.125 C11.54546875 68.77179688 10.6534375 68.41859375 9.734375 68.0546875 C9.05890625 67.78914063 8.3834375 67.52359375 7.6875 67.25 C7.27820375 62.21869788 6.8692857 57.1873652 6.46069336 52.15600586 C6.32212127 50.45026858 6.18345216 48.74453919 6.04467773 47.03881836 C5.84332131 44.56366084 5.64227837 42.08847812 5.44140625 39.61328125 C5.37587051 38.80651443 5.31033478 37.99974762 5.24281311 37.16853333 C4.77535579 31.39259871 4.33097195 25.61518979 3.90625 19.8359375 C3.63349207 16.6115491 3.2073081 13.44310692 2.6875 10.25 C1.6975 9.92 0.7075 9.59 -0.3125 9.25 Z M-94.3125 96.25 C-94.3125 97.57 -94.3125 98.89 -94.3125 100.25 C-92.85457116 100.30399736 -91.39607288 100.34279177 -89.9375 100.375 C-88.71933594 100.40980469 -88.71933594 100.40980469 -87.4765625 100.4453125 C-85.09907757 100.46370051 -85.09907757 100.46370051 -83.3125 98.25 C-83.6425 97.59 -83.9725 96.93 -84.3125 96.25 C-87.6125 96.25 -90.9125 96.25 -94.3125 96.25 Z M-24.3125 158.25 C-23.3125 160.25 -23.3125 160.25 -23.3125 160.25 Z " fill="#D41A4C" transform="translate(105.3125,8.75)"/>
<path d="M0 0 C5.21243742 2.93791928 8.54486571 7.25959713 10.4375 12.9375 C10.97531878 18.94659059 10.90600491 23.79454445 7.4375 28.9375 C3.66754518 33.31879885 -0.01654013 36.44881309 -5.88671875 37.2578125 C-11.74408934 37.52691069 -16.87264339 36.66179789 -21.5625 32.9375 C-22.78125 30.796875 -22.78125 30.796875 -23.5625 28.9375 C-24.2225 28.9375 -24.8825 28.9375 -25.5625 28.9375 C-28.78546392 21.91975598 -29.04960107 16.284716 -26.5625 8.9375 C-21.30232729 -1.24619437 -9.90737725 -2.95483181 0 0 Z " fill="#D41A4C" transform="translate(115.5625,89.0625)"/>
<path d="M0 0 C0.33 0 0.66 0 1 0 C1 3.96 1 7.92 1 12 C5.62 12 10.24 12 15 12 C15.66 13.32 16.32 14.64 17 16 C18.32 16.66 19.64 17.32 21 18 C14.4 18 7.8 18 1 18 C1.33 23.94 1.66 29.88 2 36 C1.67 36 1.34 36 1 36 C-0.74707911 29.05848031 -1.19298524 22.31077588 -1.1875 15.1875 C-1.18814453 14.37563232 -1.18878906 13.56376465 -1.18945312 12.72729492 C-1.15008086 8.38068583 -0.86123733 4.27862705 0 0 Z M1 13 C1 14.32 1 15.64 1 17 C2.45792884 17.05399736 3.91642712 17.09279177 5.375 17.125 C6.59316406 17.15980469 6.59316406 17.15980469 7.8359375 17.1953125 C10.21342243 17.21370051 10.21342243 17.21370051 12 15 C11.67 14.34 11.34 13.68 11 13 C7.7 13 4.4 13 1 13 Z " fill="#EB98AE" transform="translate(10,92)"/>
<path d="M0 0 C2.31 0 4.62 0 7 0 C7 5.28 7 10.56 7 16 C7.66 16 8.32 16 9 16 C9 24.58 9 33.16 9 42 C8.67 42 8.34 42 8 42 C7.95101562 40.76765625 7.90203125 39.5353125 7.8515625 38.265625 C7.44801377 29.047379 6.86340937 20.06376792 5 11 C4.01 12.485 4.01 12.485 3 14 C3.66 14.33 4.32 14.66 5 15 C4.01 15.33 3.02 15.66 2 16 C2 11.05 2 6.1 2 1 C1.34 0.67 0.68 0.34 0 0 Z M3 2 C3 2.99 3 3.98 3 5 C3.66 5 4.32 5 5 5 C5.33 5.99 5.66 6.98 6 8 C6 6.02 6 4.04 6 2 C5.01 2 4.02 2 3 2 Z " fill="#F1BBCA" transform="translate(102,9)"/>
<path d="M0 0 C0.33 0 0.66 0 1 0 C1 2.64 1 5.28 1 8 C-0.64559756 8.33449533 -2.29148498 8.66756499 -3.9375 9 C-4.85402344 9.185625 -5.77054688 9.37125 -6.71484375 9.5625 C-9 10 -9 10 -10 10 C-10 11.65 -10 13.3 -10 15 C-10.66 14.67 -11.32 14.34 -12 14 C-12 11.69 -12 9.38 -12 7 C-8.04 7 -4.08 7 0 7 C0 4.69 0 2.38 0 0 Z " fill="#F1B3C2" transform="translate(203,94)"/>
<path d="M0 0 C0.99 0.99 1.98 1.98 3 3 C2.01 3.495 2.01 3.495 1 4 C-4.1466253 7.43108354 -8.56921838 11.85382756 -12 17 C-12.33 15.68 -12.66 14.36 -13 13 C-11.824375 12.1028125 -11.824375 12.1028125 -10.625 11.1875 C-7.85425677 9.08914751 -7.85425677 9.08914751 -6 6 C-5.34 6 -4.68 6 -4 6 C-3.67 5.01 -3.34 4.02 -3 3 C-1.4375 1.3125 -1.4375 1.3125 0 0 Z " fill="#E47290" transform="translate(144,73)"/>
<path d="M0 0 C0.66 0.33 1.32 0.66 2 1 C0.90344712 2.31886772 -0.20253423 3.62990057 -1.3125 4.9375 C-1.92738281 5.66839844 -2.54226562 6.39929687 -3.17578125 7.15234375 C-5 9 -5 9 -8 10 C-6.76044505 6.28133515 -4.81445146 4.67716114 -2 2 C-1.34 1.34 -0.68 0.68 0 0 Z " fill="#E46E8D" transform="translate(178,42)"/>
<path d="M0 0 C0.66 0.33 1.32 0.66 2 1 C-0.31 3.31 -2.62 5.62 -5 8 C-5.66 7.67 -6.32 7.34 -7 7 C-4.78071806 4.09197539 -3.07030857 2.04687238 0 0 Z " fill="#DD476F" transform="translate(97,90)"/>
<path d="M0 0 C0 3.93169105 -1.39419615 5.16427228 -4 8 C-4.66 8 -5.32 8 -6 8 C-6.33 7.01 -6.66 6.02 -7 5 C-6.030625 4.360625 -5.06125 3.72125 -4.0625 3.0625 C-1.23963731 1.3034741 -1.23963731 1.3034741 0 0 Z " fill="#E77E98" transform="translate(44,170)"/>
<path d="M0 0 C0.99 0 1.98 0 3 0 C3.66 1.32 4.32 2.64 5 4 C3.35 4 1.7 4 0 4 C0 2.68 0 1.36 0 0 Z " fill="#FEFBFC" transform="translate(22,104)"/>
<path d="" fill="#FFFFFF" transform="translate(0,0)"/>
<path d="M0 0 C2 1 2 1 2 1 Z " fill="#FFFFFF" transform="translate(14,106)"/>
<path d="" fill="#FFFFFF" transform="translate(0,0)"/>
<path d="" fill="#FFFFFF" transform="translate(0,0)"/>
<path d="" fill="#FFFFFF" transform="translate(0,0)"/>
</svg>
